<svg xmlns="http://www.w3.org/2000/svg" width="24" height="24" viewBox="0 0 24 24" fill="currentColor">
  <g transform="scale(0.0234375)"><path fill="currentColor" d="M160 448a32 32 0 0 1-32-32V160.064a32 32 0 0 1 32-32h256a32 32 0 0 1 32 32V416a32 32 0 0 1-32 32zm448 0a32 32 0 0 1-32-32V160.064a32 32 0 0 1 32-32h255.936a32 32 0 0 1 32 32V416a32 32 0 0 1-32 32zM160 896a32 32 0 0 1-32-32V608a32 32 0 0 1 32-32h256a32 32 0 0 1 32 32v256a32 32 0 0 1-32 32zm448 0a32 32 0 0 1-32-32V608a32 32 0 0 1 32-32h255.936a32 32 0 0 1 32 32v256a32 32 0 0 1-32 32z"/></g>
</svg>
